<svg width="14" height="14" viewBox="0 0 14 14" fill="none" xmlns="http://www.w3.org/2000/svg">
<path fill-rule="evenodd" clip-rule="evenodd" d="M5 1H4V4H1V5H4V9H1V10H4V13H5V10H6V9H5V5H9V6H10V5H13V4H10V1H9V4H5V1Z" fill="#424242"/>
<path fill-rule="evenodd" clip-rule="evenodd" d="M7 7.92308L7.92308 7H12.0769L13 7.92308V12.0769L12.0769 13H7.92308L7 12.0769V7.92308ZM7.92308 7.92308V12.0769H8.38462H8.84615H11.1538H11.6154H12.0769V7.92308H7.92308Z" fill="#424242"/>
<path fill-rule="evenodd" clip-rule="evenodd" d="M8.84615 9.76923H11.1538V8.84615L10.6923 8.38462H9.30769L8.84615 8.84615V9.76923ZM9.30769 8.84615V9.30769H10.6923V8.84615H9.30769Z" fill="#424242"/>
<path d="M8.84615 12.0769V11.6154L9.30769 11.1538H10.6923L11.1538 11.6154V12.0769H11.6154V11.6154V11.1538L11.1538 10.6923H8.84615L8.38462 11.1538V12.0769H8.84615Z" fill="#424242"/>
</svg>
