<svg width="14" height="14" viewBox="0 0 14 14" fill="none" xmlns="http://www.w3.org/2000/svg">
<path fill-rule="evenodd" clip-rule="evenodd" d="M2 11.3333L2.66667 12H11.3333L12 11.3333V2.66667L11.3333 2H2.66667L2 2.66667V11.3333ZM11.3333 2.66667H2.66667V11.3333H11.3333V2.66667Z" fill="#424242"/>
<path d="M6.80517 9.4166L4.80491 8.65866V6.25863L6.81179 6.98496L6.80517 9.4166Z" fill="#424242"/>
<path d="M9.48081 8.65866L7.47391 9.4166L7.48054 6.98496L9.48081 6.25863V8.65866Z" fill="#424242"/>
<path d="M4.97879 5.62705L7.14616 4.68601L9.30693 5.62705L7.14616 6.44181L4.97879 5.62705Z" fill="#424242"/>
<path fill-rule="evenodd" clip-rule="evenodd" d="M2.66667 2.66667H11.3333V11.3333H2.66667V2.66667ZM7.48054 4.14286L9.81518 5.18498L10.1429 5.72813V8.65866L9.81518 9.19549L7.47391 10.1429H6.80517L4.47053 9.19549L4.14286 8.65866V5.72813L4.47053 5.18498L6.81179 4.14286H7.48054Z" fill="#424242"/>
</svg>
