<svg width="15" height="15" viewBox="0 0 15 15" fill="none" xmlns="http://www.w3.org/2000/svg">
<path fill-rule="evenodd" clip-rule="evenodd" d="M11.5085 4.56318L8.00652 3H7.0034L3.49152 4.56318L3 5.3779V9.77371L3.49152 10.5789L6.99347 12H7.99659L11.5085 10.5789L12 9.77371V5.3779L11.5085 4.56318ZM3.99307 9.77371L6.99347 10.9106L7.0034 7.26316L3.99307 6.17366V9.77371ZM7.50496 3.81472L4.25389 5.22629L7.50496 6.44844L10.7461 5.22629L7.50496 3.81472ZM7.99659 10.9106L11.0069 9.77371V6.17366L8.00652 7.26316L7.99659 10.9106Z" fill="#424242"/>
<path fill-rule="evenodd" clip-rule="evenodd" d="M0 14L1 15H14L15 14V1L14 0H1L0 1V14ZM14 1H1V14H14V1Z" fill="#424242"/>
</svg>
