<svg width="14" height="14" viewBox="0 0 14 14" fill="none" xmlns="http://www.w3.org/2000/svg">
<path fill-rule="evenodd" clip-rule="evenodd" d="M3.5 3.5H0V6.5H3.5V7.5H0V10.5H3.5V14H6.5V10.5H7.5V14H10.5V10.5H14V7.5H10.5V6.5H14V3.5H10.5V0H7.5V3.5H6.5V0H3.5V3.5ZM5.28571 1H4.42857V4.42857H1V5.28571H4.42857V8.71429H1V9.57143H4.42857V13H5.28571V9.57143H8.71429V13H9.57143V9.57143H13V8.71429H9.57143V5.28571H13V4.42857H9.57143V1H8.71429V4.42857H5.28571V1Z" fill="#424242"/>
<path d="M5.28571 5.28571H8.71429V8.71429H5.28571V5.28571Z" fill="#424242"/>
</svg>
