<svg width="14" height="14" viewBox="0 0 14 14" fill="none" xmlns="http://www.w3.org/2000/svg">
<path fill-rule="evenodd" clip-rule="evenodd" d="M0 13.0667L0.933333 14H13.0667L14 13.0667V0.933333L13.0667 0H0.933333L0 0.933333V13.0667ZM13.0667 0.933333H0.933333V13.0667H13.0667V0.933333Z" fill="#424242"/>
<path d="M6.72724 10.3832L3.92687 9.32213V5.96208L6.73651 6.97895L6.72724 10.3832Z" fill="#424242"/>
<path d="M10.4731 9.32213L7.66348 10.3832L7.67275 6.97895L10.4731 5.96208V9.32213Z" fill="#424242"/>
<path d="M4.1703 5.07787L7.20463 3.76041L10.2297 5.07787L7.20463 6.21854L4.1703 5.07787Z" fill="#424242"/>
<path fill-rule="evenodd" clip-rule="evenodd" d="M0.933333 0.933333H13.0667V13.0667H0.933333V0.933333ZM7.67275 3L10.9413 4.45897L11.4 5.21938V9.32213L10.9413 10.0737L7.66348 11.4H6.72724L3.45875 10.0737L3 9.32213V5.21938L3.45875 4.45897L6.73651 3H7.67275Z" fill="#424242"/>
</svg>
