<svg width="14" height="14" viewBox="0 0 14 14" fill="none" xmlns="http://www.w3.org/2000/svg">
<path fill-rule="evenodd" clip-rule="evenodd" d="M1 12L2 13H12L13 12V2L12 1H2L1 2V12ZM2 2V12H12V2H2Z" fill="#424242"/>
<path fill-rule="evenodd" clip-rule="evenodd" d="M10.5631 4.38949L7.45024 3H6.55858L3.4369 4.38949L3 5.11369V9.02107L3.4369 9.73684L6.54975 11H7.44141L10.5631 9.73684L11 9.02107V5.11369L10.5631 4.38949ZM3.88273 9.02107L6.54975 10.0317L6.55858 6.78947L3.88273 5.82103V9.02107ZM7.00441 3.7242L4.11457 4.97893L7.00441 6.06528L9.88543 4.97893L7.00441 3.7242ZM7.44141 10.0317L10.1173 9.02107V5.82103L7.45024 6.78947L7.44141 10.0317Z" fill="#424242"/>
</svg>
