<svg width="14" height="14" viewBox="0 0 14 14" fill="none" xmlns="http://www.w3.org/2000/svg">
<path fill-rule="evenodd" clip-rule="evenodd" d="M5 1H4V4H1V5H4V9H1V10H4V13H5V10H6V9H5V5H9V6H10V5H13V4H10V1H9V4H5V1Z" fill="#424242"/>
<path d="M7 10.5455V12.1818H8.63636L9.45455 11.3636L8.63636 10.5455H7Z" fill="#424242"/>
<path d="M7 9.45455V7.81818H8.63636L9.45455 8.63636L8.63636 9.45455H7Z" fill="#424242"/>
<path d="M8.63636 10.5455L9.45455 11.3636L11.6364 9.18182V9.72727L13 8.36364L11.6364 7V7.54545L8.63636 10.5455Z" fill="#424242"/>
<path d="M11.6364 12.4545V13L13 11.6364L11.6364 10.2727V10.8182L11.3636 10.5455L10.5455 11.3636L11.6364 12.4545Z" fill="#424242"/>
</svg>
