<svg version="1.1" xmlns="http://www.w3.org/2000/svg" xmlns:xlink="http://www.w3.org/1999/xlink" width="208" height="168" viewBox="0,0,208,168"><g transform="translate(-136,-96)"><g data-paper-data="{&quot;isPaintingLayer&quot;:true}" fill-rule="nonzero" stroke="none" stroke-linecap="butt" stroke-linejoin="miter" stroke-miterlimit="10" stroke-dasharray="" stroke-dashoffset="0" style="mix-blend-mode: normal"><path d="M344,143.1875l-24,120h-48.8125l-20.78125,-24h-12.8125l-4,-4l-7.1875,28.8125h-47.21875l-43.1875,-40l40.8125,-128h48l23.1875,32l2.40625,-9.59375h13.59375l5.59375,-22.40625h49.59375zM251.18751,142.70139h26.40625c3.21875,0 5.59375,-2.40625 6.40625,-5.625l0.8125,-6.67014c0.78125,-2.40625 -0.8125,-4.8125 -4,-4.8125h-24.8125zM176,120.81251c0.8125,0 0.8125,0 0.8125,0h38.375l5.625,-17.625h-38.40625zM188.09028,213.01736h-22.40626c-3.21875,0 -4.8125,-2.40625 -4,-5.59374l6.68751,-20.97917c0.8125,-3.1875 -0.78125,-5.59375 -4,-5.59375h-4c-0.78125,0 -2.40625,0 -3.18751,0l-12.37152,39.96181h40.78125zM192.81251,196h-0.8125l-14.03472,-0.11111c-3.1875,0 -7.1875,2.40625 -8,5.59375l-0.78126,1.59375c-0.8125,3.21875 0.78125,5.625 4,5.625l15.62848,0.11111zM303.81251,150.0764h-27.21875l-27.29861,0.8125h-29.59375l5.98611,-24.57638l-12.78125,-0.81251h-38.40625l-15.3125,50.5c0.8125,0 1.625,0 2.40625,0h7.21875c3.1875,0 5.44792,0.51736 4.66667,3.70487l-1.625,5.59375c-0.78125,3.21875 0.8125,5.625 4,5.625h16.81249c0.8125,0 0.81251,0 1.59376,0l5.73958,-19.73611h15.1875l-6.375,24h27.1875l6.40625,-24h15.1875l-12.78125,49.625h41.59375zM313.59375,103.18751h-38.40625l-4.33681,17.44097h12.78125c3.21875,0 7.84722,2.62847 7.03472,5.81597l-1.37153,9.29862c0,3.21875 1.14931,7.40278 4.33681,7.40278l9.77777,-0.22222c0.8125,0 0.8125,0 1.625,0z" fill="#000000" stroke-width="1"/><path d="M188.85125,208.84411l-15.70581,-0.11093c-3.21875,0 -4.82381,-2.43495 -4.01131,-5.6537l0.78132,-1.6008c0.8125,-3.1875 4.84171,-5.63533 8.02921,-5.63533l14.09876,0.13183l0.81322,0.00131z" data-paper-data="{&quot;noHover&quot;:false,&quot;origItem&quot;:[&quot;Path&quot;,{&quot;applyMatrix&quot;:true,&quot;segments&quot;:[[192.81251,196],[192.00001,196],[[177.96529,195.88889],[0,0],[-3.1875,0]],[[169.96529,201.48264],[0.8125,-3.1875],[0,0]],[[169.18403,203.07639],[0,0],[-0.8125,3.21875]],[[173.18403,208.70139],[-3.21875,0],[0,0]],[188.81251,208.8125]],&quot;closed&quot;:true,&quot;fillColor&quot;:[0,0,0]}]}" fill="#a26817" stroke-width="0.5"/><path d="M185.62834,220.84861l-40.85257,-0.00218l12.38722,-40.04109c0.78126,0 2.41274,-0.00248 3.19399,-0.00248l4.00938,-0.0019c3.21875,0 4.81106,2.50554 3.99856,5.69304l-6.65159,20.88909c-0.8125,3.18749 0.75509,5.58435 3.97384,5.58435l22.35955,0.02537z" data-paper-data="{&quot;noHover&quot;:false,&quot;origItem&quot;:[&quot;Path&quot;,{&quot;applyMatrix&quot;:true,&quot;segments&quot;:[[188.09028,213.01736],[[165.68402,213.01736],[0,0],[-3.21875,0]],[[161.68402,207.42362],[-0.8125,3.18749],[0,0]],[[168.37153,186.44445],[0,0],[0.8125,-3.1875]],[[164.37153,180.8507],[3.21875,0],[0,0]],[[160.37153,180.8507],[0,0],[-0.78125,0]],[[157.18402,180.8507],[0.78126,0],[0,0]],[144.8125,220.81251],[185.59375,220.81251]],&quot;closed&quot;:true,&quot;fillColor&quot;:[0,0,0]}]}" fill="#9f9f9f" stroke-width="0.5"/><path d="M305.06192,142.96558c-0.8125,0 -0.81507,0.00156 -1.62757,0.00156l-9.79889,0.22859c-3.1875,0 -4.35166,-4.18521 -4.35166,-7.40396l1.36143,-9.30215c0.8125,-3.1875 -3.74658,-5.84697 -6.96533,-5.84697l-12.87885,-0.02006l4.35402,-17.47312l38.47522,0.0039z" data-paper-data="{&quot;noHover&quot;:false,&quot;origItem&quot;:[&quot;Path&quot;,{&quot;applyMatrix&quot;:true,&quot;segments&quot;:[[313.59375,103.18751],[275.1875,103.18751],[270.85069,120.62848],[[283.63194,120.62848],[0,0],[3.21875,0]],[[290.66666,126.44445],[0.8125,-3.1875],[0,0]],[[289.29513,135.74307],[0,0],[0,3.21875]],[[293.63194,143.14585],[-3.1875,0],[0,0]],[[303.40971,142.92363],[0,0],[0.8125,0]],[[305.03471,142.92363],[-0.8125,0],[0,0]]],&quot;closed&quot;:true,&quot;fillColor&quot;:[0,0,0]}]}" fill="#9f9f9f" stroke-width="0.5"/><path d="M255.95918,125.56488l24.89481,0.00096c3.1875,0 4.78856,2.42324 4.00731,4.82949l-0.81212,6.69012c-0.8125,3.21875 -3.19952,5.64941 -6.41827,5.64941l-26.48802,-0.0109z" data-paper-data="{&quot;noHover&quot;:false,&quot;origItem&quot;:[&quot;Path&quot;,{&quot;applyMatrix&quot;:true,&quot;segments&quot;:[[251.18751,142.70139],[[277.59376,142.70139],[0,0],[3.21875,0]],[[284.00001,137.07639],[-0.8125,3.21875],[0,0]],[[284.81251,130.40625],[0,0],[0.78125,-2.40625]],[[280.81251,125.59375],[3.1875,0],[0,0]],[256.00001,125.59375]],&quot;closed&quot;:true,&quot;fillColor&quot;:[0,0,0]}]}" fill="#a26817" stroke-width="0.5"/><path d="M182.36245,103.16339l38.49658,0.00582l-5.62726,17.66655l-38.46556,-0.00435c0,0 -0.00024,-0.00059 -0.81274,-0.00059z" data-paper-data="{&quot;noHover&quot;:false,&quot;origItem&quot;:[&quot;Path&quot;,{&quot;applyMatrix&quot;:true,&quot;segments&quot;:[[[176,120.81251],[0,0],[0.8125,0]],[176.8125,120.81251],[215.1875,120.81251],[220.8125,103.18751],[182.40625,103.18751]],&quot;closed&quot;:true,&quot;fillColor&quot;:[0,0,0]}]}" fill="#9f9f9f" stroke-width="0.5"/><path d="M286.44402,220.84529l-41.61806,0.01538l12.71794,-49.66939l-15.08844,-0.01264l-6.44545,24.05787l-27.23338,-0.01416l6.36123,-24.04082l-15.08796,0.00911l-5.74436,19.71146c-0.78125,0 -0.87185,0.04233 -1.68435,0.04233l-16.81465,-0.00559c-3.1875,0 -4.78261,-2.41148 -4.00136,-5.63023l1.62431,-5.59812c0.78125,-3.18751 -1.47943,-3.70821 -4.66693,-3.70821l-7.21876,-0.00023c-0.78125,0 -1.59375,-0.00007 -2.40625,-0.00007l15.3241,-50.53404l38.42644,-0.01451l12.79327,0.80947l-6.00336,24.58182l29.64837,0.00512l27.3119,-0.79622l27.22187,0.00758z" data-paper-data="{&quot;noHover&quot;:false,&quot;origItem&quot;:[&quot;Path&quot;,{&quot;applyMatrix&quot;:true,&quot;segments&quot;:[[303.81251,150.0764],[276.59376,150.0764],[249.29515,150.8889],[219.7014,150.8889],[225.68751,126.31252],[212.90626,125.50001],[174.50001,125.50001],[[159.18751,176.00001],[0,0],[0.8125,0]],[[161.59376,176.00001],[-0.78125,0],[0,0]],[[168.81251,176.00001],[0,0],[3.1875,0]],[[173.47918,179.70488],[0.78125,-3.18751],[0,0]],[[171.85418,185.29863],[0,0],[-0.78125,3.21875]],[[175.85418,190.92363],[-3.1875,0],[0,0]],[[192.66667,190.92363],[0,0],[0.8125,0]],[[194.26043,190.92363],[-0.78125,0],[0,0]],[200.00001,171.18752],[215.18751,171.18752],[208.81251,195.18752],[236.00001,195.18752],[242.40626,171.18752],[257.59376,171.18752],[244.81251,220.81252],[286.40626,220.81252]],&quot;closed&quot;:true,&quot;fillColor&quot;:[0,0,0]}]}" fill="#88ff8c" stroke-width="0.5"/></g></g></svg>