<svg version="1.1" xmlns="http://www.w3.org/2000/svg" xmlns:xlink="http://www.w3.org/1999/xlink" width="208" height="168" viewBox="0,0,208,168"><g transform="translate(-136,-96)"><g data-paper-data="{&quot;isPaintingLayer&quot;:true}" fill="#000000" fill-rule="nonzero" stroke="none" stroke-width="1" stroke-linecap="butt" stroke-linejoin="miter" stroke-miterlimit="10" stroke-dasharray="" stroke-dashoffset="0" style="mix-blend-mode: normal"><path d="M344,143.1875l-24,120h-48.8125l-20.78125,-24h-12.8125l-4,-4l-7.1875,28.8125h-47.21875l-43.1875,-40l40.8125,-128h48l23.1875,32l2.40625,-9.59375h13.59375l5.59375,-22.40625h49.59375zM251.18751,142.70139h26.40625c3.21875,0 5.59375,-2.40625 6.40625,-5.625l0.8125,-6.67014c0.78125,-2.40625 -0.8125,-4.8125 -4,-4.8125h-24.8125zM176,120.81251c0.8125,0 0.8125,0 0.8125,0h38.375l5.625,-17.625h-38.40625zM188.09028,213.01736h-22.40626c-3.21875,0 -4.8125,-2.40625 -4,-5.59374l6.68751,-20.97917c0.8125,-3.1875 -0.78125,-5.59375 -4,-5.59375h-4c-0.78125,0 -2.40625,0 -3.18751,0l-12.37152,39.96181h40.78125zM192.81251,196h-0.8125l-14.03472,-0.11111c-3.1875,0 -7.1875,2.40625 -8,5.59375l-0.78126,1.59375c-0.8125,3.21875 0.78125,5.625 4,5.625l15.62848,0.11111zM303.81251,150.0764h-27.21875l-27.29861,0.8125h-29.59375l5.98611,-24.57638l-12.78125,-0.81251h-38.40625l-15.3125,50.5c0.8125,0 1.625,0 2.40625,0h7.21875c3.1875,0 5.44792,0.51736 4.66667,3.70487l-1.625,5.59375c-0.78125,3.21875 0.8125,5.625 4,5.625h16.81249c0.8125,0 0.81251,0 1.59376,0l5.73958,-19.73611h15.1875l-6.375,24h27.1875l6.40625,-24h15.1875l-12.78125,49.625h41.59375zM313.59375,103.18751h-38.40625l-4.33681,17.44097h12.78125c3.21875,0 7.84722,2.62847 7.03472,5.81597l-1.37153,9.29862c0,3.21875 1.14931,7.40278 4.33681,7.40278l9.77777,-0.22222c0.8125,0 0.8125,0 1.625,0z"/></g></g></svg>