<svg version="1.1" xmlns="http://www.w3.org/2000/svg" xmlns:xlink="http://www.w3.org/1999/xlink" width="11.98" height="13.71" viewBox="0,0,11.98,13.71"><g transform="translate(-234.01,-173.145)"><g data-paper-data="{&quot;isPaintingLayer&quot;:true}" fill="#ffffff" fill-rule="nonzero" stroke="none" stroke-width="1" stroke-linecap="butt" stroke-linejoin="miter" stroke-miterlimit="10" stroke-dasharray="" stroke-dashoffset="0" style="mix-blend-mode: normal"><path d="M245.99,177.005v6l-0.49,0.85l-5,3h-1l-5,-3l-0.49,-0.85v-6l0.49,-0.86l5,-3h1l5,3zM239.5,180.295l-4.5,-2.45v5.16l4.5,2.7zM240,179.435l4.74,-2.59l-4.74,-2.84l-4.74,2.84zM245,177.845l-4.5,2.45v5.41l4.5,-2.7z"/><path d="M245.99,179.19324l-0.99,0.84l-4.5,2.45h-1l-4.5,-2.45l-0.99,-0.84l0.75549,-0.5556l5.23451,2.9856l5.16857,-2.95264z"/></g></g></svg>