<svg width="12" height="12" viewBox="0 0 12 12" fill="none" xmlns="http://www.w3.org/2000/svg">
<path d="M12 6.4918H11.9108C11.715 6.4918 11.5294 6.53046 11.3533 6.6075C11.1753 6.68945 11.0236 6.79595 10.8968 6.92642C10.7658 7.06134 10.6631 7.21704 10.5884 7.39399L10.588 7.39493C10.5103 7.57406 10.4713 7.76444 10.4713 7.96721C10.4713 8.25671 10.4773 8.54621 10.4892 8.83572C10.5013 9.13156 10.4932 9.4195 10.4648 9.69947L10.4647 9.70083C10.4319 9.98799 10.3662 10.2648 10.2677 10.531L10.2672 10.5323C10.1621 10.805 9.99689 11.0558 9.77422 11.285C9.55058 11.5153 9.29182 11.692 8.99872 11.8153C8.70593 11.9384 7.40257 12 7.08917 12H7V11.0164H7.08917C7.28887 11.0164 7.4762 10.9757 7.65198 10.8949C7.82539 10.8173 7.97807 10.7106 8.10914 10.5756C8.23579 10.4452 8.33865 10.2897 8.41762 10.1079C8.49167 9.92848 8.52866 9.73981 8.52866 9.54098C8.52866 9.31275 8.5247 9.0866 8.51679 8.86251C8.50875 8.63895 8.50873 8.41738 8.51676 8.19781C8.52086 7.98027 8.53918 7.7667 8.57174 7.55715C8.60487 7.34825 8.66087 7.14737 8.73961 6.95536C8.81909 6.76157 8.92742 6.57746 9.06384 6.40298C9.17655 6.25881 9.31462 6.12462 9.47717 6C9.31462 5.87538 9.17655 5.74119 9.06384 5.59702C8.92742 5.42254 8.81909 5.23843 8.73961 5.04464C8.66079 4.85243 8.60487 4.64976 8.57177 4.43688C8.53916 4.23117 8.52086 4.01754 8.51676 3.79605C8.50873 3.58049 8.50875 3.35894 8.51679 3.13142C8.5247 2.91145 8.52866 2.68727 8.52866 2.45902C8.52866 2.25596 8.49162 2.0654 8.41777 1.88628C8.33896 1.70889 8.23614 1.55305 8.10914 1.41823C7.97807 1.28736 7.82604 1.18092 7.65237 1.09917C7.47654 1.0223 7.28905 0.983607 7.08917 0.983607H7V0H7.08917C7.40257 0 8.5 0 8.99872 0.184731C9.29182 0.307981 9.55058 0.484738 9.77422 0.714978C9.99689 0.944218 10.1621 1.19499 10.2672 1.46766L10.2677 1.46897C10.3661 1.73502 10.4318 2.00972 10.4646 2.29285L10.4648 2.29454C10.4932 2.57848 10.5013 2.86842 10.4892 3.16428C10.4773 3.45379 10.4713 3.74329 10.4713 4.03279C10.4713 4.23117 10.5101 4.41953 10.588 4.59892L10.5887 4.60058C10.6634 4.78129 10.7657 4.9363 10.8959 5.06648L10.8978 5.06839C11.0242 5.20238 11.1754 5.30844 11.3526 5.38604L11.354 5.38666C11.53 5.46762 11.7153 5.5082 11.9108 5.5082H12V6.4918Z" fill="#C5C5C5"/>
<path d="M0 5.5082H0.089172C0.284972 5.5082 0.470598 5.46954 0.646718 5.3925C0.824657 5.31055 0.976442 5.20405 1.10317 5.07358C1.23423 4.93866 1.33687 4.78296 1.4116 4.60601L1.412 4.60507C1.48974 4.42594 1.52866 4.23556 1.52866 4.03279C1.52866 3.74329 1.52272 3.45379 1.51084 3.16428C1.4987 2.86844 1.50678 2.5805 1.53519 2.30053L1.53533 2.29917C1.56814 2.01201 1.63382 1.7352 1.73233 1.46898L1.73282 1.46766C1.83792 1.19498 2.00311 0.944217 2.22578 0.714978C2.44942 0.484738 2.70818 0.307981 3.00128 0.184731C3.29407 0.0616119 4.59743 0 4.91083 0H5V0.983607H4.91083C4.71113 0.983607 4.5238 1.02427 4.34802 1.10513C4.17461 1.18275 4.02193 1.28942 3.89086 1.42437C3.76421 1.55475 3.66135 1.71034 3.58238 1.89205C3.50833 2.07152 3.47134 2.26019 3.47134 2.45902C3.47134 2.68725 3.4753 2.9134 3.48321 3.13749C3.49125 3.36105 3.49127 3.58262 3.48324 3.80219C3.47914 4.01973 3.46082 4.2333 3.42826 4.44285C3.39513 4.65175 3.33913 4.85263 3.26039 5.04464C3.18091 5.23843 3.07258 5.42254 2.93616 5.59702C2.82345 5.74119 2.68538 5.87538 2.52283 6C2.68538 6.12462 2.82345 6.25881 2.93616 6.40298C3.07258 6.57746 3.18091 6.76157 3.26039 6.95536C3.33921 7.14757 3.39513 7.35024 3.42823 7.56312C3.46084 7.76883 3.47914 7.98246 3.48324 8.20395C3.49127 8.41951 3.49125 8.64106 3.48321 8.86858C3.4753 9.08855 3.47134 9.31273 3.47134 9.54098C3.47134 9.74404 3.50838 9.9346 3.58223 10.1137C3.66104 10.2911 3.76386 10.4469 3.89086 10.5818C4.02193 10.7126 4.17396 10.8191 4.34763 10.9008C4.52346 10.9777 4.71095 11.0164 4.91083 11.0164H5V12H4.91083C4.59743 12 3.5 12 3.00128 11.8153C2.70818 11.692 2.44942 11.5153 2.22578 11.285C2.00311 11.0558 1.83793 10.805 1.73283 10.5323L1.73232 10.531C1.63387 10.265 1.56819 9.99028 1.53535 9.70715L1.53516 9.70546C1.50677 9.42152 1.4987 9.13158 1.51084 8.83572C1.52272 8.54621 1.52866 8.25671 1.52866 7.96721C1.52866 7.76883 1.48986 7.58047 1.41201 7.40108L1.41129 7.39942C1.33659 7.21871 1.23428 7.0637 1.10412 6.93352L1.10221 6.93161C0.975774 6.79762 0.824574 6.69156 0.64742 6.61396L0.646008 6.61334C0.470013 6.53238 0.284652 6.4918 0.089172 6.4918H0V5.5082Z" fill="#C5C5C5"/>
</svg>
