<svg width="14" height="14" viewBox="0 0 14 14" fill="none" xmlns="http://www.w3.org/2000/svg">
<path fill-rule="evenodd" clip-rule="evenodd" d="M3.5 3.5H1.5V6.5H3.5V7.5H1.5V10.5H3.5V12.5H6.5V10.5H7.5V12.5H10.5V10.5H12.5V7.5H10.5V6.5H12.5V3.5H10.5V1.5H7.5V3.5H6.5V1.5H3.5V3.5ZM5.28571 2.5H4.42857V4.42857H2.5V5.28571H4.42857V8.71429H2.5V9.57143H4.42857V11.5H5.28571V9.57143H8.71429V11.5H9.57143V9.57143H11.5V8.71429H9.57143V5.28571H11.5V4.42857H9.57143V2.5H8.71429V4.42857H5.28571V2.5Z" fill="#C5C5C5"/>
<path d="M5.28571 5.28571H8.71429V8.71429H5.28571V5.28571Z" fill="#C5C5C5"/>
</svg>
