<svg width="14" height="14" viewBox="0 0 14 14" fill="none" xmlns="http://www.w3.org/2000/svg">
<path d="M13 7.4918H12.9108C12.715 7.4918 12.5294 7.53046 12.3533 7.6075C12.1753 7.68945 12.0236 7.79595 11.8968 7.92642C11.7658 8.06134 11.6631 8.21704 11.5884 8.39399L11.588 8.39493C11.5103 8.57406 11.4713 8.76444 11.4713 8.96721C11.4713 9.25671 11.4773 9.54621 11.4892 9.83572C11.5013 10.1316 11.4932 10.4195 11.4648 10.6995L11.4647 10.7008C11.4319 10.988 11.3662 11.2648 11.2677 11.531L11.2672 11.5323C11.1621 11.805 10.9969 12.0558 10.7742 12.285C10.5506 12.5153 10.2918 12.692 9.99872 12.8153C9.70593 12.9384 8.40257 13 8.08917 13H8V12.0164H8.08917C8.28887 12.0164 8.4762 11.9757 8.65198 11.8949C8.82539 11.8173 8.97807 11.7106 9.10914 11.5756C9.23579 11.4452 9.33865 11.2897 9.41762 11.1079C9.49167 10.9285 9.52866 10.7398 9.52866 10.541C9.52866 10.3128 9.5247 10.0866 9.51679 9.86251C9.50875 9.63895 9.50873 9.41738 9.51676 9.19781C9.52086 8.98027 9.53918 8.7667 9.57174 8.55715C9.60487 8.34825 9.66087 8.14737 9.73961 7.95536C9.81909 7.76157 9.92742 7.57746 10.0638 7.40298C10.1765 7.25881 10.3146 7.12462 10.4772 7C10.3146 6.87538 10.1765 6.74119 10.0638 6.59702C9.92742 6.42254 9.81909 6.23843 9.73961 6.04464C9.66079 5.85243 9.60487 5.64976 9.57177 5.43688C9.53916 5.23117 9.52086 5.01754 9.51676 4.79605C9.50873 4.58049 9.50875 4.35894 9.51679 4.13142C9.5247 3.91145 9.52866 3.68727 9.52866 3.45902C9.52866 3.25596 9.49162 3.0654 9.41777 2.88628C9.33896 2.70889 9.23614 2.55305 9.10914 2.41823C8.97807 2.28736 8.82604 2.18092 8.65237 2.09917C8.47654 2.0223 8.28905 1.98361 8.08917 1.98361H8V1H8.08917C8.40257 1 9.5 1 9.99872 1.18473C10.2918 1.30798 10.5506 1.48474 10.7742 1.71498C10.9969 1.94422 11.1621 2.19499 11.2672 2.46766L11.2677 2.46897C11.3661 2.73502 11.4318 3.00972 11.4646 3.29285L11.4648 3.29454C11.4932 3.57848 11.5013 3.86842 11.4892 4.16428C11.4773 4.45379 11.4713 4.74329 11.4713 5.03279C11.4713 5.23117 11.5101 5.41953 11.588 5.59892L11.5887 5.60058C11.6634 5.78129 11.7657 5.9363 11.8959 6.06648L11.8978 6.06839C12.0242 6.20238 12.1754 6.30844 12.3526 6.38604L12.354 6.38666C12.53 6.46762 12.7153 6.5082 12.9108 6.5082H13V7.4918Z" fill="#C5C5C5"/>
<path d="M1 6.5082H1.08917C1.28497 6.5082 1.4706 6.46954 1.64672 6.3925C1.82466 6.31055 1.97644 6.20405 2.10317 6.07358C2.23423 5.93866 2.33687 5.78296 2.4116 5.60601L2.412 5.60507C2.48974 5.42594 2.52866 5.23556 2.52866 5.03279C2.52866 4.74329 2.52272 4.45379 2.51084 4.16428C2.4987 3.86844 2.50678 3.5805 2.53519 3.30053L2.53533 3.29917C2.56814 3.01201 2.63382 2.7352 2.73233 2.46898L2.73282 2.46766C2.83792 2.19498 3.00311 1.94422 3.22578 1.71498C3.44942 1.48474 3.70818 1.30798 4.00128 1.18473C4.29407 1.06161 5.59743 1 5.91083 1H6V1.98361H5.91083C5.71113 1.98361 5.5238 2.02427 5.34802 2.10513C5.17461 2.18275 5.02193 2.28942 4.89086 2.42437C4.76421 2.55475 4.66135 2.71034 4.58238 2.89205C4.50833 3.07152 4.47134 3.26019 4.47134 3.45902C4.47134 3.68725 4.4753 3.9134 4.48321 4.13749C4.49125 4.36105 4.49127 4.58262 4.48324 4.80219C4.47914 5.01973 4.46082 5.2333 4.42826 5.44285C4.39513 5.65175 4.33913 5.85263 4.26039 6.04464C4.18091 6.23843 4.07258 6.42254 3.93616 6.59702C3.82345 6.74119 3.68538 6.87538 3.52283 7C3.68538 7.12462 3.82345 7.25881 3.93616 7.40298C4.07258 7.57746 4.18091 7.76157 4.26039 7.95536C4.33921 8.14757 4.39513 8.35024 4.42823 8.56312C4.46084 8.76883 4.47914 8.98246 4.48324 9.20395C4.49127 9.41951 4.49125 9.64106 4.48321 9.86858C4.4753 10.0885 4.47134 10.3127 4.47134 10.541C4.47134 10.744 4.50838 10.9346 4.58223 11.1137C4.66104 11.2911 4.76386 11.4469 4.89086 11.5818C5.02193 11.7126 5.17396 11.8191 5.34763 11.9008C5.52346 11.9777 5.71095 12.0164 5.91083 12.0164H6V13H5.91083C5.59743 13 4.5 13 4.00128 12.8153C3.70818 12.692 3.44942 12.5153 3.22578 12.285C3.00311 12.0558 2.83793 11.805 2.73283 11.5323L2.73232 11.531C2.63387 11.265 2.56819 10.9903 2.53535 10.7072L2.53516 10.7055C2.50677 10.4215 2.4987 10.1316 2.51084 9.83572C2.52272 9.54621 2.52866 9.25671 2.52866 8.96721C2.52866 8.76883 2.48986 8.58047 2.41201 8.40108L2.41129 8.39942C2.33659 8.21871 2.23428 8.0637 2.10412 7.93352L2.10221 7.93161C1.97577 7.79762 1.82457 7.69156 1.64742 7.61396L1.64601 7.61334C1.47001 7.53238 1.28465 7.4918 1.08917 7.4918H1V6.5082Z" fill="#C5C5C5"/>
</svg>
