<svg width="14" height="14" viewBox="0 0 14 14" fill="none" xmlns="http://www.w3.org/2000/svg">
<path d="M3.00479 4.38481L7.00611 2.68367L10.9952 4.38481L7.00611 5.85766L3.00479 4.38481Z" fill="#C5C5C5"/>
<path d="M6.37658 11.2352L2.68378 9.86508V5.52652L6.3888 6.83951L6.37658 11.2352Z" fill="#C5C5C5"/>
<path d="M11.3162 9.86508L7.61118 11.2352L7.62341 6.83951L11.3162 5.52652V9.86508Z" fill="#C5C5C5"/>
<path fill-rule="evenodd" clip-rule="evenodd" d="M5.61538 13L1.92308 11.6442L1 10.8355V4.41338L1.92308 3.05759L6.37658 1H7.61118L12.5385 3.0576L13 4.41338V9.83651L12.5385 11.2352L7.92308 13H5.61538ZM7.62341 1.70181L11.9335 3.58566L12.5385 4.56752V9.86508L11.9335 10.8355L7.61118 12.5481H6.37658L2.06648 10.8355L1.46154 9.86508V4.56752L2.06648 3.58566L6.3888 1.70181H7.62341Z" fill="#C5C5C5"/>
</svg>
